{"title":"Devils Playground 2010 720p BRRip x264 Feel-Free","uid":6120741,"size":1806294960,"categoryP":"video","categoryS":"hd___movies","magnet":"?xt=urn:btih:ca96e863e8f331645bdd6bed98569bf36c7012a3&amp;dn=Devils+Playground+2010+720p+BRRip+x264+Feel-Free&amp;tr=udp%3A%2F%2Ftracker.openbittorrent.com%3A80&amp;tr=udp%3A%2F%2Fopen.demonii.com%3A1337&amp;tr=udp%3A%2F%2Ftracker.coppersurfer.tk%3A6969&amp;tr=udp%3A%2F%2Fexodus.desync.com%3A6969","seeders":0,"leechers":2,"uploader":"neon","files":-1,"time":1295730640,"description":"Genre:Action | Horror\nLanguage:English\n &lt;a href=&quot; http://www.imdb.com/title/tt1453245/&quot; rel=&quot;nofollow&quot; target=&quot;_NEW&quot;&gt; http://www.imdb.com/title/tt1453245/&lt;/a&gt;\nSource:1080p BluRay x264-TiTANS\n\n\nFormat : Matroska\nFile size : 1.68 GiB\nDuration : 1h 33mn\nOverall bit rate : 2 583 Kbps\n\n\nVideo\nFormat settings, CABAC : Yes\nFormat settings, ReFrames : 4 frames\nFormat settings, GOP : M=1, N=16\nCodec ID : V_MPEG4/ISO/AVC\nDuration : 1h 33mn\nBit rate : 2 200 Kbps\nWidth : 1 280 pixels\nHeight : 544 pixels\nDisplay aspect ratio : 2.35:1\nFrame rate mode : Variable\nFrame rate : 25.000 fps\nColor space : YUV\nChroma subsampling : 4:2:0\nBit depth : 8 bits\nScan type : Progressive\nBits/(Pixel*Frame) : 0.126\nStream size : 1.40 GiB (83%)\nWriting library : x264\n\n\nAudio\nID : 2\nFormat : AC-3\nFormat/Info : Audio Coding 3\nMode extension : CM (complete main)\nCodec ID : A_AC3\nDuration : 1h 33mn\nBit rate mode : Constant\nBit rate : 384 Kbps\nChannel(s) : 6 channels\nChannel positions : Front: L C R, Side: L R, LFE\nSampling rate : 48.0 KHz\nBit depth : 16 bits\nVideo delay : -1mn 5s\nStream size : 255 MiB (15%)\nLanguage : English\n\n\n\nPlot:\nAs the world succumbs to a zombie apocalypse, Cole a hardened mercenary, is chasing the one person who can provide a cure\n &lt;a href=&quot;\nhttp://shareimage.org/images/v10y1wzacfo56j2s9wfw.png&quot; rel=&quot;nofollow&quot; target=&quot;_NEW&quot;&gt;\nhttp://shareimage.org/images/v10y1wzacfo56j2s9wfw.png&lt;/a&gt; &lt;a href=&quot;\nhttp://shareimage.org/images/5117hyyl0n0owm3uhn9.png&quot; rel=&quot;nofollow&quot; target=&quot;_NEW&quot;&gt;\nhttp://shareimage.org/images/5117hyyl0n0owm3uhn9.png&lt;/a&gt; &lt;a href=&quot;\nhttp://shareimage.org/images/213fhn8yp249f1zrn9fx.png&quot; rel=&quot;nofollow&quot; target=&quot;_NEW&quot;&gt;\nhttp://shareimage.org/images/213fhn8yp249f1zrn9fx.png&lt;/a&gt; &lt;a href=&quot;\nhttp://shareimage.org/images/m8aedpz0f6fx1tm91nf8.png&quot; rel=&quot;nofollow&quot; target=&quot;_NEW&quot;&gt;\nhttp://shareimage.org/images/m8aedpz0f6fx1tm91nf8.png&lt;/a&gt;","torrent":{"xt":"urn:btih:ca96e863e8f331645bdd6bed98569bf36c7012a3","amp;dn":"Devils+Playground+2010+720p+BRRip+x264+Feel-Free","amp;tr":["udp%3A%2F%2Ftracker.openbittorrent.com%3A80","udp%3A%2F%2Fopen.demonii.com%3A1337","udp%3A%2F%2Ftracker.coppersurfer.tk%3A6969","udp%3A%2F%2Fexodus.desync.com%3A6969"],"infoHash":"ca96e863e8f331645bdd6bed98569bf36c7012a3","infoHashBuffer":{"type":"Buffer","data":[202,150,232,99,232,243,49,100,91,221,107,237,152,86,155,243,108,112,18,163]},"announce":[],"urlList":[]}}